<svg width="350" height="350" viewBox="0 0 350 350" fill="none" xmlns="http://www.w3.org/2000/svg"><g clip-path="url(#a)"><path d="M180.578 120.03c33.553 0 60.753-20.986 60.753-46.874 0-25.887-27.2-46.873-60.753-46.873s-60.753 20.986-60.753 46.873c0 25.888 27.2 46.874 60.753 46.874Z" fill="url(#b)" opacity=".8"/><path d="M180.082 119.133c32.856 0 59.49-20.642 59.49-46.105 0-25.463-26.634-46.104-59.49-46.104-32.855 0-59.49 20.641-59.49 46.104s26.635 46.105 59.49 46.105Z" fill="#7A73F6"/><path opacity=".1" d="M130.017 78.368c0-25.514 26.514-46.198 59.222-46.198a72.173 72.173 0 0 1 29.512 6.134c-10.409-7.079-24.028-11.38-38.933-11.38-32.708 0-59.226 20.683-59.226 46.197 0 17.131 11.956 32.085 29.719 40.063-12.436-8.47-20.294-20.925-20.294-34.816Z" fill="#fff"/><path opacity=".3" d="m180.083 91.371 65.934 114.025 65.935 114.02H48.213l65.935-114.02 65.935-114.025Z" fill="#333CEA"/><g opacity=".5"><path d="m201.033 90.332 5.143-15.2c3.631-10.868-.297-22.823-9.677-29.45l.042-.025a25.689 25.689 0 0 0-6.587-3.324l-.071-.025-.079-.025a25.768 25.768 0 0 0-7.049-1.32c-.849-.044-1.7-.044-2.549 0a26.09 26.09 0 0 0-4.375.602 17.76 17.76 0 0 0-1.214.307c-.38.112-.805.233-1.201.362-.793.261-1.573.556-2.336.893-.384.166-.763.34-1.135.527a25.647 25.647 0 0 0-3.232 1.895 25.76 25.76 0 0 0-9.878 13.028l-8.083 23.95a25.59 25.59 0 0 0-.809 13.476c.12.594.271 1.18.417 1.762.112.386.229.772.358 1.154.192.57.417 1.139.63 1.696a26.179 26.179 0 0 0 1.606 3.236c.405.694.834 1.371 1.318 2.027.351.49.722.972 1.106 1.437a25.281 25.281 0 0 0 1.635 1.799 25.792 25.792 0 0 0 8.759 5.771l.142.058c.176-.312.371-.613.584-.902 1.251-1.707 3.428-2.908 5.502-2.459.15.033.3.079.45.125 1.051.369 2.086 1.03 3.099 1.354a2.79 2.79 0 0 0 2.34-.029c2.027-1.076 1.277-4.47 3.016-5.957.081-.069.166-.133.254-.192a.768.768 0 0 1-.066-.095c1.343-.831 3.203-.278 4.751.257 1.668.586 3.845.981 5.005-.378.784-.93.726-2.347 1.472-3.323.868-1.122 2.503-1.246 3.917-1.047h.071c2.711 1.113 5.673-.735 5.464-3.647-.246-3.864.98-7.524 1.26-8.318Z" fill="url(#c)" opacity=".3"/><path d="M164.969 112.762c1.218-1.662 3.308-2.825 5.31-2.372 2.002.452 3.9 2.351 5.681 1.4 2.436-1.296.709-6.062 4.663-6.415a5.214 5.214 0 0 1 2.407.416c1.669.677 4.28 1.441 5.564-.083.755-.898.701-2.264 1.423-3.195.834-1.08 2.423-1.217 3.779-1.009l.067.02c2.615 1.076 5.476-.71 5.272-3.518-.263-3.74.93-7.262 1.189-8.027l4.955-14.669c4.388-13.09-2.667-27.253-15.788-31.693-13.143-4.364-27.357 2.663-31.813 15.728l-7.813 23.07c-4.215 12.594 2.152 26.279 14.524 31.219.176-.302.37-.593.58-.872Z" fill="#fff"/><path opacity=".2" d="M174.204 59.744a2.71 2.71 0 0 0 2.716-2.704 2.71 2.71 0 0 0-2.716-2.705 2.71 2.71 0 0 0-2.715 2.705 2.71 2.71 0 0 0 2.715 2.704Zm15.442 5.172a2.71 2.71 0 0 0 2.715-2.704 2.71 2.71 0 0 0-2.715-2.705 2.71 2.71 0 0 0-2.716 2.705 2.71 2.71 0 0 0 2.716 2.704Z" fill="#000"/></g><path opacity=".1" d="M237.035 58.652a36.462 36.462 0 0 1 1.161 9.152c0 25.49-26.671 46.153-59.573 46.153-26.928-.017-49.68-13.854-57.039-32.84 5.466 21.12 29.537 37.025 58.412 37.025 32.902 0 59.577-20.664 59.577-46.153a36.678 36.678 0 0 0-2.538-13.337Z" fill="#000"/><path d="M180.082 124.706c67.714 0 122.607-14.318 122.607-31.98s-54.893-31.98-122.607-31.98S57.476 75.064 57.476 92.726s54.892 31.98 122.606 31.98Z" fill="url(#d)" opacity=".8"/><path d="M180.082 61.626c-65.708 0-118.98 13.759-118.98 30.736h237.96c0-16.977-53.271-30.736-118.98-30.736Z" fill="#E6E4F6"/><path d="M180.082 124.091c65.709 0 118.98-13.761 118.98-30.737H61.102c0 16.976 53.272 30.737 118.98 30.737Z" fill="#fff"/><path d="M180.082 124.091c65.709 0 118.98-13.761 118.98-30.737H61.102c0 16.976 53.272 30.737 118.98 30.737Z" fill="#AEADCF"/><rect opacity=".05" x="123.566" y="85.422" width="113.031" height="15.864" rx="7.932" fill="#000"/><path opacity=".5" d="M56.648 41.845a1.634 1.634 0 0 1-.911-1.972.83.83 0 0 0 .035-.182.817.817 0 0 0-1.47-.541.806.806 0 0 0-.09.16 1.631 1.631 0 0 1-1.972.91.891.891 0 0 0-.183-.036.818.818 0 0 0-.382 1.563 1.634 1.634 0 0 1 .911 1.971.835.835 0 0 0-.035.178.817.817 0 0 0 1.47.546.731.731 0 0 0 .09-.164 1.631 1.631 0 0 1 1.973-.888.818.818 0 0 0 .724-1.434.713.713 0 0 0-.16-.111Zm211.188 126.912a1.632 1.632 0 0 1-.892-1.972.804.804 0 0 0 .036-.182.823.823 0 0 0-1.477-.541.752.752 0 0 0-.089.159 1.64 1.64 0 0 1-1.981.911.863.863 0 0 0-.182-.036.821.821 0 0 0-.823.533.814.814 0 0 0 .439 1.03 1.632 1.632 0 0 1 .892 1.972.882.882 0 0 0-.036.177.822.822 0 0 0 1.477.546.764.764 0 0 0 .089-.164 1.64 1.64 0 0 1 1.98-.888.819.819 0 0 0 1.006-.497.813.813 0 0 0-.278-.937.733.733 0 0 0-.161-.111ZM34.835 227.256a1.634 1.634 0 0 1-.911-1.972.826.826 0 0 0 .035-.182.817.817 0 0 0-1.56-.382 1.63 1.63 0 0 1-1.972.91.817.817 0 0 0-.564 1.528 1.633 1.633 0 0 1 .91 1.971.851.851 0 0 0-.035.178.816.816 0 0 0 1.47.546.74.74 0 0 0 .09-.164 1.63 1.63 0 0 1 1.972-.888.816.816 0 0 0 .724-1.434.672.672 0 0 0-.16-.111ZM12.008 90.428a1.634 1.634 0 0 1-.888-1.971.83.83 0 0 0 .035-.182.817.817 0 0 0-1.47-.542.806.806 0 0 0-.09.16 1.631 1.631 0 0 1-1.973.91.897.897 0 0 0-.182-.035.818.818 0 0 0-.382 1.563 1.633 1.633 0 0 1 .911 1.97.839.839 0 0 0-.036.178.817.817 0 0 0 1.471.547.734.734 0 0 0 .09-.165 1.631 1.631 0 0 1 1.972-.888c.06.019.12.03.183.036a.818.818 0 0 0 .542-1.47.716.716 0 0 0-.183-.11Zm251.863-69.429a1.625 1.625 0 0 1-.873-1.956.81.81 0 0 0-.49-.993.8.8 0 0 0-.922.275.847.847 0 0 0-.087.159 1.599 1.599 0 0 1-1.94.88.853.853 0 0 0-.179-.035.803.803 0 0 0-.918.51.814.814 0 0 0 .363.992.711.711 0 0 0 .158.093 1.625 1.625 0 0 1 .873 1.956.878.878 0 0 0-.035.176.812.812 0 0 0 .535.848.8.8 0 0 0 .942-.328.765.765 0 0 0 .088-.163 1.598 1.598 0 0 1 1.939-.881c.059.018.119.03.179.035a.803.803 0 0 0 .806-.529.813.813 0 0 0-.273-.93.677.677 0 0 0-.166-.11Z" fill="#4D4DF0"/><g opacity=".5" fill="#47E6B1"><path d="M46.112 124.465h1.225v7.491h-1.225z"/><path d="M50.195 127.55v1.322h-6.94v-1.322h6.94Z"/></g><g opacity=".5" fill="#47E6B1"><path d="M345.546 91.746h1.225v7.491h-1.225z"/><path d="M349.629 94.83v1.322h-6.941V94.83h6.941Z"/></g><g opacity=".5" fill="#47E6B1"><path d="M303.903 206.76h1.225v7.491h-1.225z"/><path d="M307.986 209.844v1.322h-6.941v-1.322h6.941Z"/></g><path opacity=".5" d="M300.55 54.685a2.478 2.478 0 1 0 0-4.956 2.478 2.478 0 0 0 0 4.956ZM3.1 25.932a2.479 2.479 0 1 0 0-4.957 2.479 2.479 0 0 0 0 4.957Zm75.353 142.776a2.479 2.479 0 1 0 0-4.958 2.479 2.479 0 0 0 0 4.958Z" fill="#F55F44"/><path opacity=".05" d="M97.788 85.422c7.666 0 13.881-1.332 13.881-2.974 0-1.643-6.215-2.975-13.881-2.975s-13.881 1.332-13.881 2.975c0 1.642 6.215 2.974 13.88 2.974Zm0 21.813c7.666 0 13.881-1.332 13.881-2.974 0-1.643-6.215-2.975-13.881-2.975s-13.881 1.332-13.881 2.975c0 1.642 6.215 2.974 13.88 2.974Zm160.623-21.813c7.666 0 13.881-1.332 13.881-2.974 0-1.643-6.215-2.975-13.881-2.975s-13.881 1.332-13.881 2.975c0 1.642 6.215 2.974 13.881 2.974Zm0 21.813c7.666 0 13.881-1.332 13.881-2.974 0-1.643-6.215-2.975-13.881-2.975s-13.881 1.332-13.881 2.975c0 1.642 6.215 2.974 13.881 2.974Zm-78.329-34.703c7.666 0 13.881-1.331 13.881-2.974 0-1.643-6.215-2.975-13.881-2.975s-13.881 1.332-13.881 2.975 6.215 2.974 13.881 2.974Zm9.915-29.744c7.667 0 13.881-1.332 13.881-2.975s-6.214-2.974-13.881-2.974c-7.666 0-13.881 1.331-13.881 2.974 0 1.643 6.215 2.975 13.881 2.975Zm-26.77 11.898c7.666 0 13.881-1.332 13.881-2.975s-6.215-2.974-13.881-2.974c-7.667 0-13.881 1.331-13.881 2.974 0 1.643 6.214 2.975 13.881 2.975Zm52.55 4.957c7.666 0 13.881-1.332 13.881-2.974 0-1.643-6.215-2.975-13.881-2.975-7.667 0-13.881 1.332-13.881 2.975 0 1.642 6.214 2.974 13.881 2.974Zm-35.695 56.516c7.666 0 13.881-1.332 13.881-2.975s-6.215-2.974-13.881-2.974-13.881 1.331-13.881 2.974c0 1.643 6.215 2.975 13.881 2.975Z" fill="#000"/><path d="M48.825 282.07v-15.336l37.33-51.951h24.37l-36.259 51.951-11.175-3.328h65.028v18.664H48.825ZM92.811 298v-15.93l.714-18.664v-14.147h22.23V298H92.811Zm82.274 1.664c-7.133 0-13.473-1.704-19.021-5.112-5.468-3.407-9.788-8.321-12.958-14.741-3.17-6.419-4.755-14.226-4.755-23.419 0-9.194 1.585-17 4.755-23.42 3.17-6.419 7.49-11.333 12.958-14.741 5.548-3.408 11.888-5.112 19.021-5.112 7.054 0 13.315 1.704 18.783 5.112 5.548 3.408 9.907 8.322 13.077 14.741 3.17 6.42 4.755 14.226 4.755 23.42 0 9.193-1.585 17-4.755 23.419-3.17 6.42-7.529 11.334-13.077 14.741-5.468 3.408-11.729 5.112-18.783 5.112Zm0-19.258c2.536 0 4.755-.793 6.657-2.378 1.982-1.585 3.527-4.121 4.637-7.608 1.109-3.567 1.664-8.243 1.664-14.028 0-5.865-.555-10.541-1.664-14.028-1.11-3.487-2.655-6.024-4.637-7.609-1.902-1.585-4.121-2.377-6.657-2.377-2.536 0-4.795.792-6.776 2.377-1.902 1.585-3.448 4.122-4.637 7.609-1.109 3.487-1.664 8.163-1.664 14.028 0 5.785.555 10.461 1.664 14.028 1.189 3.487 2.735 6.023 4.637 7.608 1.981 1.585 4.24 2.378 6.776 2.378Zm49.269 1.664v-15.336l37.329-51.951h24.371l-36.259 51.951-11.175-3.328h65.028v18.664h-79.294ZM268.34 298v-15.93l.714-18.664v-14.147h22.23V298H268.34Z" fill="#7668E7"/></g><defs><linearGradient id="b" x1="241.334" y1="120.034" x2="241.334" y2="26.283" gradientUnits="userSpaceOnUse"><stop stop-color="gray" stop-opacity=".25"/><stop offset=".54" stop-color="gray" stop-opacity=".12"/><stop offset="1" stop-color="gray" stop-opacity=".1"/></linearGradient><linearGradient id="c" x1="195.297" y1="132.392" x2="230.156" y2="64.392" gradientUnits="userSpaceOnUse"><stop stop-color="gray" stop-opacity=".25"/><stop offset=".54" stop-color="gray" stop-opacity=".12"/><stop offset="1" stop-color="gray" stop-opacity=".1"/></linearGradient><linearGradient id="d" x1="302.689" y1="124.706" x2="302.689" y2="60.746" gradientUnits="userSpaceOnUse"><stop stop-color="gray" stop-opacity=".25"/><stop offset=".54" stop-color="gray" stop-opacity=".12"/><stop offset="1" stop-color="gray" stop-opacity=".1"/></linearGradient><clipPath id="a"><path fill="#fff" d="M0 0h350v350H0z"/></clipPath></defs></svg>
