<svg width="47" height="30" viewBox="0 0 47 30" fill="none" xmlns="http://www.w3.org/2000/svg"><path d="M.46 13.389c2.4 0 3.22-.938 3.22-3.285V6.006C3.68 1.47 5.653 0 9.935 0v2.628c-2.52 0-3.219 1.126-3.219 3.535v4.911c0 1.768-.592 3.175-3.28 3.723v.375c2.688.547 3.28 1.955 3.28 3.723v4.911c0 2.44.698 3.535 3.219 3.535V30c-4.282 0-6.255-1.47-6.255-6.038v-4.066c0-2.347-.82-3.316-3.22-3.316v-3.191Z" fill="currentColor"/><path d="m23.565 12.158-5.959-8.302h11.918l-5.959 8.302Zm0 0 9.068 12.565H14.497l9.068-12.565Z" stroke="currentColor" stroke-width="3.158"/><path d="M46.665 13.389c-2.399 0-3.219-.938-3.219-3.285V6.006C43.446 1.47 41.473 0 37.191 0v2.628c2.52 0 3.219 1.126 3.219 3.535v4.911c0 1.768.592 3.175 3.28 3.723v.375c-2.688.547-3.28 1.955-3.28 3.723v4.911c0 2.44-.698 3.535-3.219 3.535V30c4.282 0 6.255-1.47 6.255-6.038v-4.066c0-2.347.82-3.316 3.219-3.316v-3.191Z" fill="currentColor"/></svg>
