<svg width="45" height="30" viewBox="0 0 45 30" fill="none" xmlns="http://www.w3.org/2000/svg"><path d="M0 13.51c2.333 0 3.13-.913 3.13-3.195V6.328C3.13 1.916 5.05.486 9.216.486v2.556c-2.452 0-3.13 1.096-3.13 3.439v4.777c0 1.719-.577 3.088-3.19 3.62v.366c2.613.532 3.19 1.902 3.19 3.62v4.778c0 2.373.678 3.438 3.13 3.438v2.587c-4.165 0-6.084-1.43-6.084-5.873v-3.956c0-2.282-.798-3.225-3.131-3.225V13.51Z" fill="currentColor"/><path d="m22.472 12.312-5.796-8.075h11.592l-5.796 8.075Zm0 0 8.82 12.222h-17.64l8.82-12.222Z" stroke="currentColor" stroke-width="3.072"/><path d="M44.942 13.51c-2.333 0-3.13-.913-3.13-3.195V6.328c0-4.412-1.92-5.842-6.084-5.842v2.556c2.45 0 3.13 1.096 3.13 3.439v4.777c0 1.719.576 3.088 3.19 3.62v.366c-2.614.532-3.19 1.902-3.19 3.62v4.778c0 2.373-.68 3.438-3.13 3.438v2.587c4.164 0 6.084-1.43 6.084-5.873v-3.956c0-2.282.797-3.225 3.13-3.225V13.51Z" fill="currentColor"/></svg>
