<svg width="101" height="38" viewBox="0 0 101 38" fill="none" xmlns="http://www.w3.org/2000/svg">
<rect x="26.8057" width="25.6458" height="9.40344" transform="rotate(90 26.8057 0)" fill="#DD3726"/>
<rect x="26.8057" y="28.6377" width="8.54858" height="9.40344" transform="rotate(90 26.8057 28.6377)" fill="#DD3726"/>
<path fill-rule="evenodd" clip-rule="evenodd" d="M0.290238 0L4.73659 9.40344H41.3138L45.7601 0L45.7635 0.00706719V0H45.7601H0.290238ZM0.290238 0L0.289062 0.00248582V0H0.290238Z" fill="#DD3726"/>
<path d="M99.5561 36.8688C97.7218 37.1426 95.9695 37.2795 94.2994 37.2795C92.6567 37.2795 91.2741 36.7182 90.1516 35.5957C89.029 34.4732 88.4678 32.981 88.4678 31.1193V9.4035H95.6547V30.0926C95.6547 30.5033 95.7916 30.8455 96.0653 31.1193C96.3391 31.3931 96.6814 31.53 97.092 31.53H99.5561V36.8688Z" fill="black"/>
<path d="M73.0328 31.1239C74.4839 31.1239 76.1266 30.8501 77.961 30.3025V27.8384H72.0061C71.5954 27.8384 71.2532 27.9753 70.9794 28.2491C70.7056 28.5229 70.5687 28.8651 70.5687 29.2758V29.6865C70.5687 30.0972 70.7056 30.4394 70.9794 30.7132C71.2532 30.987 71.5954 31.1239 72.0061 31.1239H73.0328ZM65.4352 15.1074C70.4455 14.5598 74.963 14.286 78.9877 14.286C80.8494 14.286 82.3416 14.8473 83.4641 15.9698C84.5866 17.0923 85.1479 18.5845 85.1479 20.4462V36.4627H78.7823L78.3716 34.4093C77.0849 35.2581 75.757 35.8878 74.3881 36.2984C73.0465 36.6817 71.9103 36.8734 70.9794 36.8734H69.542C67.6803 36.8734 66.1881 36.3121 65.0656 35.1896C63.9431 34.0671 63.3818 32.5749 63.3818 30.7132V28.8651C63.3818 27.0034 63.9431 25.5113 65.0656 24.3887C66.1881 23.2662 67.6803 22.7049 69.542 22.7049H77.961V21.0622C77.961 20.6515 77.8241 20.3093 77.5503 20.0355C77.2765 19.7617 76.9343 19.6248 76.5236 19.6248C74.744 19.6248 72.7727 19.707 70.6098 19.8713C68.4743 20.0355 66.7494 20.1587 65.4352 20.2409V15.1074Z" fill="black"/>
<path d="M48.8287 31.1239C50.2798 31.1239 51.9225 30.8501 53.7569 30.3025V27.8384H47.802C47.3913 27.8384 47.0491 27.9753 46.7753 28.2491C46.5015 28.5229 46.3646 28.8651 46.3646 29.2758V29.6865C46.3646 30.0972 46.5015 30.4394 46.7753 30.7132C47.0491 30.987 47.3913 31.1239 47.802 31.1239H48.8287ZM41.2311 15.1074C46.2414 14.5598 50.7589 14.286 54.7836 14.286C56.6453 14.286 58.1374 14.8473 59.26 15.9698C60.3825 17.0923 60.9438 18.5845 60.9438 20.4462V36.4627H54.5782L54.1675 34.4093C52.8807 35.2581 51.5529 35.8878 50.184 36.2984C48.8424 36.6817 47.7062 36.8734 46.7753 36.8734H45.3379C43.4762 36.8734 41.984 36.3121 40.8615 35.1896C39.739 34.0671 39.1777 32.5749 39.1777 30.7132V28.8651C39.1777 27.0034 39.739 25.5113 40.8615 24.3887C41.984 23.2662 43.4762 22.7049 45.3379 22.7049H53.7569V21.0622C53.7569 20.6515 53.62 20.3093 53.3462 20.0355C53.0724 19.7617 52.7302 19.6248 52.3195 19.6248C50.5399 19.6248 48.5686 19.707 46.4057 19.8713C44.2702 20.0355 42.5453 20.1587 41.2311 20.2409V15.1074Z" fill="black"/>
</svg>
