<svg width="101" height="38" viewBox="0 0 101 38" fill="none" xmlns="http://www.w3.org/2000/svg">
<rect x="26.8052" width="25.6458" height="9.40344" transform="rotate(90 26.8052 0)" fill="white"/>
<rect x="26.8052" y="28.6377" width="8.54858" height="9.40344" transform="rotate(90 26.8052 28.6377)" fill="white"/>
<path fill-rule="evenodd" clip-rule="evenodd" d="M0.28975 0L4.7361 9.40344H41.3133L45.7597 0L45.763 0.00706719V0H45.7597H0.28975ZM0.28975 0L0.288574 0.00248582V0H0.28975Z" fill="white"/>
<path d="M99.5566 36.8689C97.7222 37.1426 95.97 37.2795 94.2999 37.2795C92.6572 37.2795 91.2746 36.7183 90.152 35.5958C89.0295 34.4732 88.4683 32.9811 88.4683 31.1193V9.40356H95.6552V30.0926C95.6552 30.5033 95.792 30.8456 96.0658 31.1193C96.3396 31.3931 96.6819 31.53 97.0925 31.53H99.5566V36.8689Z" fill="#DDDDDD"/>
<path d="M73.0333 31.1238C74.4844 31.1238 76.1271 30.85 77.9615 30.3024V27.8383H72.0066C71.5959 27.8383 71.2537 27.9752 70.9799 28.249C70.7061 28.5228 70.5692 28.865 70.5692 29.2757V29.6864C70.5692 30.0971 70.7061 30.4393 70.9799 30.7131C71.2537 30.9869 71.5959 31.1238 72.0066 31.1238H73.0333ZM65.4357 15.1072C70.446 14.5597 74.9635 14.2859 78.9882 14.2859C80.8499 14.2859 82.342 14.8472 83.4646 15.9697C84.5871 17.0922 85.1484 18.5843 85.1484 20.4461V36.4626H78.7828L78.3721 34.4092C77.0853 35.2579 75.7575 35.8876 74.3885 36.2983C73.047 36.6816 71.9108 36.8733 70.9799 36.8733H69.5425C67.6808 36.8733 66.1886 36.312 65.0661 35.1895C63.9436 34.067 63.3823 32.5748 63.3823 30.7131V28.865C63.3823 27.0033 63.9436 25.5111 65.0661 24.3886C66.1886 23.2661 67.6808 22.7048 69.5425 22.7048H77.9615V21.0621C77.9615 20.6514 77.8246 20.3092 77.5508 20.0354C77.277 19.7616 76.9348 19.6247 76.5241 19.6247C74.7445 19.6247 72.7732 19.7069 70.6103 19.8711C68.4748 20.0354 66.7499 20.1586 65.4357 20.2407V15.1072Z" fill="#DDDDDD"/>
<path d="M48.8287 31.1238C50.2798 31.1238 51.9225 30.85 53.7569 30.3024V27.8383H47.802C47.3913 27.8383 47.0491 27.9752 46.7753 28.249C46.5015 28.5228 46.3646 28.865 46.3646 29.2757V29.6864C46.3646 30.0971 46.5015 30.4393 46.7753 30.7131C47.0491 30.9869 47.3913 31.1238 47.802 31.1238H48.8287ZM41.2311 15.1072C46.2414 14.5597 50.7589 14.2859 54.7836 14.2859C56.6453 14.2859 58.1374 14.8472 59.26 15.9697C60.3825 17.0922 60.9438 18.5843 60.9438 20.4461V36.4626H54.5782L54.1675 34.4092C52.8807 35.2579 51.5529 35.8876 50.184 36.2983C48.8424 36.6816 47.7062 36.8733 46.7753 36.8733H45.3379C43.4762 36.8733 41.984 36.312 40.8615 35.1895C39.739 34.067 39.1777 32.5748 39.1777 30.7131V28.865C39.1777 27.0033 39.739 25.5111 40.8615 24.3886C41.984 23.2661 43.4762 22.7048 45.3379 22.7048H53.7569V21.0621C53.7569 20.6514 53.62 20.3092 53.3462 20.0354C53.0724 19.7616 52.7302 19.6247 52.3195 19.6247C50.5399 19.6247 48.5686 19.7069 46.4057 19.8711C44.2702 20.0354 42.5453 20.1586 41.2311 20.2407V15.1072Z" fill="#DDDDDD"/>
</svg>
