<svg width="48" height="48" viewBox="0 0 48 48" fill="none" xmlns="http://www.w3.org/2000/svg"><path d="M24 48c13.255 0 24-10.745 24-24S37.255 0 24 0 0 10.745 0 24s10.745 24 24 24Z" fill="#CFCFCF"/><path d="m24 6-.24.825V30.63l.24.24 11.04-6.54L24 6Z" fill="#343434"/><path d="M24 6 12.945 24.33 24 30.87V6Z" fill="#8C8C8C"/><path d="m24 32.955-.135.165v8.475L24 42l11.055-15.57L24 32.955Z" fill="#3C3C3B"/><path d="M24 42v-9.045L12.945 26.43 24 42Z" fill="#8C8C8C"/><path d="m24 30.87 11.04-6.54L24 19.32v11.55Z" fill="#141414"/><path d="M12.945 24.33 24 30.87V19.32l-11.055 5.01Z" fill="#393939"/></svg>
