<svg width="25" height="25" viewBox="0 0 25 25" fill="none" xmlns="http://www.w3.org/2000/svg"><path d="M12.5 24.5c6.628 0 12-5.372 12-12 0-6.627-5.372-12-12-12-6.627 0-12 5.373-12 12 0 6.628 5.373 12 12 12Z" fill="#0098EA"/><path d="M16.598 7.198H8.403c-1.507 0-2.462 1.625-1.704 2.939l5.058 8.766a.859.859 0 0 0 1.487 0l5.059-8.766c.757-1.312-.198-2.94-1.704-2.94Zm-4.845 9.076-1.101-2.131-2.658-4.754a.464.464 0 0 1 .408-.694h3.35v7.58Zm5.253-6.886-2.657 4.756-1.102 2.13v-7.58h3.35c.367 0 .584.39.409.694Z" fill="#fff"/></svg>
